<svg version="1.1" id="Layer_1" xmlns="http://www.w3.org/2000/svg" xmlns:xlink="http://www.w3.org/1999/xlink" x="0px" y="0px"
	 width="100%" viewBox="0 0 512 512" enable-background="new 0 0 512 512" xml:space="preserve">
<path fill="#000000" opacity="1.000000" stroke="none" 
	d="
M341.000000,513.000000 
	C228.860580,513.000000 117.221138,512.981201 5.581806,513.084839 
	C1.986876,513.088196 0.890851,512.520203 0.893749,508.583832 
	C1.017317,340.791534 1.016296,172.999130 0.894429,5.206834 
	C0.891726,1.485264 1.800666,0.910454 5.291221,0.912537 
	C173.083557,1.012675 340.875946,1.010842 508.668304,0.922662 
	C512.042847,0.920888 513.117126,1.329574 513.114075,5.166350 
	C512.981934,173.125259 512.985474,341.084290 513.099731,509.043243 
	C513.102112,512.552429 512.290466,513.098267 508.958435,513.090698 
	C453.139191,512.963684 397.319550,513.000000 341.000000,513.000000 
z"/>
<path fill="#FEFEFE" opacity="1.000000" stroke="none" 
	d="
M285.976746,397.074097 
	C233.659134,397.106354 181.837311,397.102051 130.015961,397.252838 
	C126.584549,397.262817 126.004639,396.140656 126.007263,393.038269 
	C126.083763,302.556702 126.075348,212.075089 126.039581,121.593483 
	C126.038506,118.860580 125.952820,117.055008 129.818298,117.069672 
	C179.472549,117.257889 229.129684,116.998489 278.781281,117.419518 
	C299.677521,117.596710 320.249725,120.584274 339.187073,130.430115 
	C362.271454,142.432053 373.276550,161.657440 373.172180,187.491028 
	C373.071350,212.450623 360.378265,229.376053 339.133514,240.828369 
	C336.815552,242.077896 334.390533,243.128799 331.610016,244.466797 
	C344.148468,249.060577 355.718903,254.398575 365.477875,262.984802 
	C384.717957,279.912811 390.229645,301.690582 387.522675,326.228363 
	C383.531250,362.409363 360.619232,381.339874 327.839661,390.990997 
	C314.364532,394.958435 300.512329,396.749359 285.976746,397.074097 
z"/>
<path fill="#020202" opacity="1.000000" stroke="none" 
	d="
M340.968689,329.766541 
	C332.823792,345.302826 318.824860,351.003143 303.085541,353.910767 
	C295.690247,355.276947 288.193115,355.653870 280.702606,355.668976 
	C245.215012,355.740479 209.726822,355.626190 174.239944,355.800079 
	C170.028000,355.820679 169.040543,354.603180 169.072083,350.533661 
	C169.260590,326.210205 169.233276,301.884125 169.088425,277.560059 
	C169.067978,274.124268 169.885284,273.068481 173.465729,273.082336 
	C208.952927,273.219788 244.442520,272.966492 279.927887,273.256470 
	C295.817627,273.386322 311.507599,275.509888 325.593536,283.741791 
	C343.087158,293.965210 348.601501,310.505646 340.968689,329.766541 
z"/>
<path fill="#010101" opacity="1.000000" stroke="none" 
	d="
M246.000031,158.929489 
	C260.629486,159.290619 274.796631,158.044983 288.890442,159.932480 
	C296.831787,160.996002 304.407623,163.197617 311.753693,166.470932 
	C333.903687,176.340607 334.216675,205.910950 317.307098,219.000870 
	C307.311401,226.738647 295.877380,230.714264 283.570099,230.862823 
	C246.617065,231.308868 209.656174,231.081482 172.698761,231.225235 
	C169.815659,231.236450 169.098404,230.330963 169.111725,227.553223 
	C169.215424,205.911011 169.290405,184.266754 169.058792,162.626511 
	C169.016327,158.659256 170.926651,158.901398 173.579712,158.905869 
	C197.553085,158.946213 221.526566,158.929489 246.000031,158.929489 
z"/>
</svg>